<svg xmlns="http://www.w3.org/2000/svg" viewBox="0 0 64 64">
  <defs>
    <linearGradient id="shieldGradient" x1="0%" y1="0%" x2="0%" y2="100%">
      <stop offset="0%" style="stop-color:#00D9FF;stop-opacity:1" />
      <stop offset="100%" style="stop-color:#00A8CC;stop-opacity:1" />
    </linearGradient>
  </defs>
  <!-- Background circle -->
  <circle cx="32" cy="32" r="30" fill="#0A0E27"/>
  <!-- Shield shape -->
  <path d="M32 8 L48 14 L48 28 C48 40 40 50 32 56 C24 50 16 40 16 28 L16 14 Z" 
        fill="url(#shieldGradient)" 
        stroke="#00D9FF" 
        stroke-width="1.5"/>
  <!-- Sentinel "S" monogram -->
  <path d="M32 20 C28 20 26 22 26 24 C26 26 28 28 30 28 C32 28 34 27 36 26 L38 30 C36 32 32 34 28 34 C22 34 18 30 18 24 C18 18 22 14 28 14 C32 14 36 16 38 18 L36 22 C34 20 32 20 32 20 Z M32 44 C36 44 38 42 38 40 C38 38 36 36 34 36 C32 36 30 37 28 38 L26 34 C28 32 32 30 36 30 C42 30 46 34 46 40 C46 46 42 50 36 50 C32 50 28 48 26 46 L28 42 C30 44 32 44 32 44 Z" 
        fill="#0A0E27"/>
</svg>

